<?xml version="1.0" encoding="UTF-8"?>
<svg id="Layer_3" data-name="Layer 3" xmlns="http://www.w3.org/2000/svg" viewBox="0 0 701.52 58.05">
  <defs>
    <style>
      .cls-1 {
        fill: #fff;
      }
    </style>
  </defs>
  <g id="Layer_1" data-name="Layer 1">
    <g>
      <g>
        <polygon class="cls-1" points="48.69 11.23 67.9 11.23 67.9 57.31 80.11 57.31 80.11 11.23 97.41 11.23 97.41 .75 48.69 .75 48.69 11.23"/>
        <path class="cls-1" d="M27.66.79C11.79,1.61.56,13.52.02,28.53h-.02c0,.17,0,.33,0,.5,0,.16,0,.33,0,.49h.02c.53,15.01,11.77,26.92,27.64,27.75v.03h14.45v-10.5h-12.15c-9.92,0-17.99-7.92-18.26-17.78.27-9.87,8.34-17.79,18.26-17.79h12.15V.74h-14.45v.04h0Z"/>
        <path class="cls-1" d="M141.07,21.05c0-11.21-9.09-20.3-20.29-20.3h-16.79v10.48h16.79c5.42,0,9.81,4.4,9.81,9.82s-4.39,9.81-9.81,9.81h-14.89v4.18l19.44,22.27h14.85l-14.38-16.61c8.77-2.24,15.27-10.17,15.27-19.65"/>
      </g>
      <g>
        <path class="cls-1" d="M270.98.74v9.67h-18.36v14.1h16.32v9.67h-16.32v23.12h-11.48V.74h29.84Z"/>
        <path class="cls-1" d="M299.74,58.05c-11.31,0-18.69-7.54-18.69-25.01v-8.03c0-17.46,7.38-25.01,18.69-25.01s18.69,7.54,18.69,25.01v8.03c0,17.46-7.38,25.01-18.69,25.01ZM299.74,48.37c4.92,0,7.21-4.02,7.21-15.33v-8.03c0-11.31-2.3-15.33-7.21-15.33s-7.21,4.02-7.21,15.33v8.03c0,11.31,2.3,15.33,7.21,15.33Z"/>
        <path class="cls-1" d="M348.92,58.05c-11.31,0-18.69-7.54-18.69-25.01v-8.03c0-17.46,7.38-25.01,18.69-25.01s18.69,7.54,18.69,25.01v8.03c0,17.46-7.38,25.01-18.69,25.01ZM348.92,48.37c4.92,0,7.21-4.02,7.21-15.33v-8.03c0-11.31-2.3-15.33-7.21-15.33s-7.21,4.02-7.21,15.33v8.03c0,11.31,2.3,15.33,7.21,15.33Z"/>
        <path class="cls-1" d="M380.88,57.31V.74h17.55c10.99,0,18.61,6.56,18.61,24.6v7.38c0,17.96-7.62,24.6-18.61,24.6h-17.55ZM405.56,32.71v-7.38c0-9.51-1.23-14.84-7.13-14.84h-6.07v37.06h6.07c5.9,0,7.13-5.33,7.13-14.84Z"/>
      </g>
      <g>
        <path class="cls-1" d="M470.13,57.31h-10.9L448.57.74h12.54l5,35.34L474.48.74h10.99l8.36,35.34,5-35.34h12.54l-10.66,56.57h-10.9l-9.84-37.3-9.84,37.3Z"/>
        <path class="cls-1" d="M538.99,58.05c-11.31,0-18.69-7.54-18.69-25.01v-8.03c0-17.46,7.38-25.01,18.69-25.01s18.69,7.54,18.69,25.01v8.03c0,17.46-7.38,25.01-18.69,25.01ZM538.99,48.37c4.92,0,7.21-4.02,7.21-15.33v-8.03c0-11.31-2.3-15.33-7.21-15.33s-7.21,4.02-7.21,15.33v8.03c0,11.31,2.3,15.33,7.21,15.33Z"/>
        <path class="cls-1" d="M596.36,57.31l-8.28-22.22h-5.66v22.22h-11.48V.74h17.71c10.9,0,18.04,5.82,18.04,17.3,0,7.62-3.03,12.63-7.87,15.09l9.59,24.19h-12.05ZM587.35,25.42c4.84,0,7.87-1.48,7.87-7.38s-3.03-7.54-7.87-7.54h-4.92v14.92h4.92Z"/>
        <path class="cls-1" d="M646.36,57.31l-9.76-23.61-5.49,9.18v14.43h-11.48V.74h11.48v23.53l12.38-23.53h13.12l-12.71,20.99,14.92,35.58h-12.46Z"/>
        <path class="cls-1" d="M692.59,15.17c-2.3-3.36-4.76-5.49-8.12-5.49-3.94,0-5.82,2.38-5.82,6.23,0,4.43,2.46,6.23,8.44,8.2,10.17,3.28,14.43,7.46,14.43,17.46,0,9.26-5.9,16.48-16.81,16.48-8.44,0-14.27-2.71-18.69-9.26l8.61-6.07c2.62,3.28,5.08,5.66,9.26,5.66,4.59,0,6.15-2.87,6.15-6.31,0-3.94-1.8-6.15-8.94-8.44-9.51-3.12-13.94-8.36-13.94-17.71s5.33-15.91,16.81-15.91c7.54,0,13.61,2.95,16.89,9.18l-8.28,5.99Z"/>
      </g>
      <g>
        <path class="cls-1" d="M177.01,50.26l-.76-.58c-1.49-2.02.74-5.32,2.26-6.7l3.32-3c2.41-2.18,4.59-4.46,6.56-7.06l4.29-5.66c1.25-1.65,1.87-3.64,2.17-5.67.17-1.14.39-2.16,1.02-3.17.64-1.03,1.31-2.02,2.15-2.95l6.41-7.11c.2-.22.47-.26.66-.12.22.16.26.44.07.68l-6.27,8.21c-.21.27-.16.58.08.74.2.14.49.08.67-.16l6.27-8.22c.18-.23.45-.27.65-.12.13.1.19.42.06.59l-6.31,8.26c-.19.25-.15.55.05.73.13.11.5.11.64-.08l6.39-8.36c.13-.17.46-.17.58-.07.13.1.21.42.09.58l-6.33,8.29c-.18.24-.15.57.04.71.22.17.53.11.72-.14l6.31-8.26c.16-.21.49-.19.66-.05s.19.43.04.66l-5.09,7.92c-.76,1.18-1.62,2.21-2.59,3.19-.77.78-1.62,1.19-2.62,1.58-1.9.74-3.58,1.97-4.84,3.62l-4.97,6.49c-2.86,3.74-4.43,7.83-6.66,11.64-1.06,1.82-3.46,4.37-5.73,3.56Z"/>
        <path class="cls-1" d="M187.6,32.62l3.84,5.48c.98,1.4,1.6,2.93,2.39,4.45l3.26,6.27c.61,1.17,2.04,1.54,3.12.92s1.48-2.14.68-3.26l-27.16-38.4c-.29-.4-.71-.49-1.08-.4-1.28.32-.92,3.64-.72,4.71,1.16,6.21,5.76,14.09,9.47,19.18,1.1,1.51,3.13,1.82,4.64.81.52-.35,1.18-.28,1.55.25Z"/>
      </g>
    </g>
  </g>
</svg>