<?xml version="1.0" encoding="UTF-8"?>
<svg id="Layer_2" data-name="Layer 2" xmlns="http://www.w3.org/2000/svg" viewBox="0 0 293.54 287.81">
  <defs>
    <style>
      .cls-1 {
        fill: #ca3725;
      }
    </style>
  </defs>
  <g id="Layer_1" data-name="Layer 1">
    <g>
      <path class="cls-1" d="M287.23,116.92h6.31V0H0v287.81h293.53v-116.93h-6.31c-12.83,64.58-70.83,113.33-140.46,113.33C67.73,284.21,3.67,221.39,3.67,143.9S67.74,3.6,146.77,3.6c69.62,0,127.63,48.75,140.46,113.32"/>
      <g>
        <polygon class="cls-1" points="132.94 61.58 145.1 61.58 145.1 90.76 152.84 90.76 152.84 61.58 163.78 61.58 163.78 54.94 132.94 54.94 132.94 61.58"/>
        <path class="cls-1" d="M119.62,54.97c-10.05.52-17.16,8.06-17.5,17.57h-.01c0,.11,0,.21,0,.32,0,.1,0,.21,0,.31h.01c.34,9.51,7.45,17.05,17.5,17.57v.02h9.15v-6.65h-7.7c-6.28,0-11.39-5.01-11.57-11.26.17-6.25,5.28-11.27,11.57-11.27h7.7v-6.65h-9.15v.02h0Z"/>
        <path class="cls-1" d="M191.43,67.79c0-7.1-5.76-12.85-12.85-12.85h-10.63v6.64h10.63c3.43,0,6.21,2.79,6.21,6.22s-2.78,6.21-6.21,6.21h-9.43v2.65l12.31,14.1h9.4l-9.11-10.52c5.55-1.42,9.67-6.44,9.67-12.44"/>
      </g>
      <g>
        <path class="cls-1" d="M108.27,153.56v6.13h-11.63v8.93h10.33v6.13h-10.33v14.64h-7.27v-35.82h18.9Z"/>
        <path class="cls-1" d="M128.36,189.85c-7.16,0-11.84-4.78-11.84-15.83v-5.09c0-11.06,4.67-15.83,11.84-15.83s11.84,4.78,11.84,15.83v5.09c0,11.06-4.67,15.83-11.84,15.83ZM128.36,183.72c3.12,0,4.57-2.54,4.57-9.71v-5.09c0-7.16-1.45-9.71-4.57-9.71s-4.57,2.54-4.57,9.71v5.09c0,7.16,1.45,9.71,4.57,9.71Z"/>
        <path class="cls-1" d="M161.38,189.85c-7.16,0-11.84-4.78-11.84-15.83v-5.09c0-11.06,4.67-15.83,11.84-15.83s11.84,4.78,11.84,15.83v5.09c0,11.06-4.67,15.83-11.84,15.83ZM161.38,183.72c3.12,0,4.57-2.54,4.57-9.71v-5.09c0-7.16-1.45-9.71-4.57-9.71s-4.57,2.54-4.57,9.71v5.09c0,7.16,1.45,9.71,4.57,9.71Z"/>
        <path class="cls-1" d="M183.5,189.38v-35.82h11.11c6.96,0,11.78,4.15,11.78,15.57v4.67c0,11.37-4.83,15.57-11.78,15.57h-11.11ZM199.13,173.81v-4.67c0-6.02-.78-9.4-4.52-9.4h-3.84v23.47h3.84c3.74,0,4.52-3.37,4.52-9.4Z"/>
        <path class="cls-1" d="M76.58,232.41h-6.9l-6.75-35.82h7.94l3.17,22.38,5.3-22.38h6.96l5.3,22.38,3.17-22.38h7.94l-6.75,35.82h-6.9l-6.23-23.62-6.23,23.62Z"/>
        <path class="cls-1" d="M122.06,232.87c-7.16,0-11.84-4.78-11.84-15.83v-5.09c0-11.06,4.67-15.83,11.84-15.83s11.84,4.78,11.84,15.83v5.09c0,11.06-4.67,15.83-11.84,15.83ZM122.06,226.75c3.12,0,4.57-2.54,4.57-9.71v-5.09c0-7.16-1.45-9.71-4.57-9.71s-4.57,2.54-4.57,9.71v5.09c0,7.16,1.45,9.71,4.57,9.71Z"/>
        <path class="cls-1" d="M160.27,232.41l-5.24-14.07h-3.58v14.07h-7.27v-35.82h11.21c6.9,0,11.42,3.69,11.42,10.95,0,4.83-1.92,8-4.98,9.55l6.07,15.32h-7.63ZM154.56,212.21c3.06,0,4.98-.93,4.98-4.67s-1.92-4.78-4.98-4.78h-3.11v9.45h3.11Z"/>
        <path class="cls-1" d="M193.8,232.41l-6.18-14.95-3.48,5.81v9.14h-7.27v-35.82h7.27v14.9l7.84-14.9h8.31l-8.05,13.29,9.45,22.53h-7.89Z"/>
        <path class="cls-1" d="M224.96,205.72c-1.45-2.13-3.01-3.48-5.14-3.48-2.49,0-3.69,1.51-3.69,3.95,0,2.8,1.56,3.95,5.35,5.19,6.44,2.08,9.14,4.72,9.14,11.06,0,5.87-3.74,10.44-10.64,10.44-5.35,0-9.03-1.71-11.84-5.87l5.45-3.84c1.66,2.08,3.22,3.58,5.87,3.58,2.91,0,3.89-1.82,3.89-4,0-2.49-1.14-3.89-5.66-5.35-6.02-1.97-8.83-5.3-8.83-11.21s3.37-10.07,10.64-10.07c4.78,0,8.62,1.87,10.69,5.81l-5.24,3.79Z"/>
      </g>
      <g>
        <path class="cls-1" d="M140.84,135.37l-.48-.37c-.94-1.28.47-3.37,1.43-4.24l2.1-1.9c1.52-1.38,2.9-2.82,4.15-4.47l2.72-3.58c.79-1.05,1.18-2.31,1.37-3.59.11-.72.25-1.37.64-2.01.4-.66.83-1.28,1.36-1.87l4.06-4.5c.13-.14.3-.16.42-.08.14.1.17.28.05.43l-3.97,5.2c-.13.17-.1.37.05.47.13.09.31.05.43-.1l3.97-5.2c.11-.15.29-.17.41-.08.08.06.12.26.04.37l-4,5.23c-.12.16-.1.35.03.46.08.07.32.07.41-.05l4.04-5.29c.08-.1.29-.11.37-.04.08.06.13.26.05.37l-4.01,5.25c-.11.15-.09.36.02.45.14.11.34.07.46-.09l4-5.23c.1-.13.31-.12.41-.03s.12.27.03.42l-3.23,5.01c-.48.74-1.03,1.4-1.64,2.02-.49.49-1.03.76-1.66,1-1.2.47-2.27,1.25-3.07,2.29l-3.14,4.11c-1.81,2.37-2.81,4.96-4.22,7.37-.67,1.15-2.19,2.77-3.63,2.26Z"/>
        <path class="cls-1" d="M147.55,124.2l2.43,3.47c.62.89,1.01,1.86,1.51,2.82l2.07,3.97c.39.74,1.29.98,1.98.58s.94-1.35.43-2.07l-17.2-24.32c-.18-.26-.45-.31-.68-.25-.81.2-.58,2.31-.45,2.98.73,3.93,3.64,8.92,5.99,12.14.7.96,1.98,1.16,2.94.51.33-.22.75-.18.98.16Z"/>
      </g>
    </g>
  </g>
</svg>